<?xml version="1.0" encoding="UTF-8"?>
<svg width="770px" height="82px" viewBox="0 0 770 82" version="1.1" xmlns="http://www.w3.org/2000/svg" xmlns:xlink="http://www.w3.org/1999/xlink">
    <!-- Generator: Sketch 52.3 (67297) - http://www.bohemiancoding.com/sketch -->
    <title>Group</title>
    <desc>Created with Sketch.</desc>
    <defs>
        <linearGradient x1="0%" y1="50%" x2="96.7846821%" y2="50%" id="linearGradient-1">
            <stop stop-color="#123A7E" offset="0%"></stop>
            <stop stop-color="#0275B7" offset="46.832099%"></stop>
            <stop stop-color="#00A3CD" offset="100%"></stop>
        </linearGradient>
    </defs>
    <g id="Symbols" stroke="none" stroke-width="1" fill="none" fill-rule="evenodd">
        <g id="footer-tablet" transform="translate(1.000000, 0.000000)" fill-rule="nonzero">
            <g id="Group" transform="translate(-1.000000, 0.000000)">
                <path d="M0.729192927,78.1510875 C69.0315445,80.7696608 134.856467,81.1179456 195.742188,79.1015625 C424.390625,71.5292969 564.671875,28.046875 683.773438,28.046875 C713.143623,27.0430868 741.739788,26.4757046 769.561933,26.3447285 C769.561933,26.3447285 769.561933,17.5631524 769.561933,0 L0.91796875,0 C0.305989583,52.0820878 0.243064309,78.1324503 0.729192927,78.1510875 Z" id="Path-4" fill="#FFFFFF"></path>
                <path d="M0.0928114719,27.9215829 C329.34204,15.6568567 483.754038,60.6847877 579.843203,71.3079145 C628.333438,76.6687469 695.906231,80.4409056 769.480513,81" id="Path-4-Copy-2" stroke="url(#linearGradient-1)" stroke-width="2" transform="translate(384.786662, 53.411215) scale(-1, 1) rotate(-180.000000) translate(-384.786662, -53.411215) "></path>
            </g>
        </g>
    </g>
</svg>