<?xml version="1.0" encoding="UTF-8"?>
<svg width="1449px" height="83px" viewBox="0 0 1449 83" version="1.1" xmlns="http://www.w3.org/2000/svg" xmlns:xlink="http://www.w3.org/1999/xlink">
    <!-- Generator: Sketch 52.3 (67297) - http://www.bohemiancoding.com/sketch -->
    <title>Group</title>
    <desc>Created with Sketch.</desc>
    <defs>
        <linearGradient x1="0%" y1="50%" x2="96.7846821%" y2="50%" id="linearGradient-1">
            <stop stop-color="#123A7E" offset="0%"></stop>
            <stop stop-color="#0275B7" offset="46.832099%"></stop>
            <stop stop-color="#00A3CD" offset="100%"></stop>
        </linearGradient>
    </defs>
    <g id="Symbols" stroke="none" stroke-width="1" fill="none" fill-rule="evenodd">
        <g id="footer-desktop" transform="translate(1.000000, 8.000000)" fill-rule="nonzero">
            <g id="Group" transform="translate(0.000000, -8.000000)">
                <path d="M0,50.3730469 C204.0625,74.5735677 382.309896,84.1497396 534.742188,79.1015625 C763.390625,71.5292969 903.671875,28.046875 1022.77344,28.046875 C1188.91927,22.3684896 1330.29557,30.655599 1446.90234,52.9082031 L1446.90234,4.97379915e-14 L0,4.97379915e-14 L0,50.3730469 Z" id="Path-4" fill="#FFFFFF"></path>
                <path d="M-9.09494702e-13,56.1139583 C573.158787,-13.6230696 794.497672,57.7384592 918.843376,71.4854844 C1043.18908,85.2325097 1293.01914,88.5326281 1447.75022,53.9940802" id="Path-4-Copy-2" stroke="url(#linearGradient-1)" stroke-width="2" transform="translate(723.875108, 53.624749) scale(-1, 1) rotate(-180.000000) translate(-723.875108, -53.624749) "></path>
            </g>
        </g>
    </g>
</svg>