<?xml version="1.0" encoding="UTF-8"?>
<svg width="1027px" height="82px" viewBox="0 0 1027 82" version="1.1" xmlns="http://www.w3.org/2000/svg" xmlns:xlink="http://www.w3.org/1999/xlink">
    <!-- Generator: Sketch 52.3 (67297) - http://www.bohemiancoding.com/sketch -->
    <title>Group</title>
    <desc>Created with Sketch.</desc>
    <defs>
        <linearGradient x1="0%" y1="50%" x2="96.7846821%" y2="50%" id="linearGradient-1">
            <stop stop-color="#123A7E" offset="0%"></stop>
            <stop stop-color="#0275B7" offset="46.832099%"></stop>
            <stop stop-color="#00A3CD" offset="100%"></stop>
        </linearGradient>
    </defs>
    <g id="Symbols" stroke="none" stroke-width="1" fill="none" fill-rule="evenodd">
        <g id="footer-tablet-landscape" transform="translate(2.000000, 8.000000)" fill-rule="nonzero">
            <g id="Group" transform="translate(-2.000000, -8.000000)">
                <path d="M1.20147268,70.88629 C119.571764,79.5862504 227.418669,82.3246745 324.742187,79.1015625 C553.390625,71.5292969 693.671875,28.046875 812.773437,28.046875 C889.218857,25.434191 960.042077,25.7780239 1026,29.0783736 C1026,23.9196792 1025.9401,14.226888 1025.82031,0 L1.7109375,0 C1.37129429,22.6666667 1.20147268,46.29543 1.20147268,70.88629 Z" id="Path-4" fill="#FFFFFF"></path>
                <path d="M0.922841365,35.0336276 C1.3723088,35.0004872 2.82150113,34.9674457 3.27041856,34.934503 C421.556922,4.23961611 601.181142,59.3334189 708.843203,71.2359859 C784.672384,79.6192724 907.795695,84.1174886 1026.64144,78.5185599" id="Path-4-Copy-2" stroke="url(#linearGradient-1)" stroke-width="2" transform="translate(513.782140, 53.375251) scale(-1, 1) rotate(-180.000000) translate(-513.782140, -53.375251) "></path>
            </g>
        </g>
    </g>
</svg>